<?xml version="1.0" encoding="utf-8"?>
<!-- Generator: Adobe Illustrator 26.5.3, SVG Export Plug-In . SVG Version: 6.00 Build 0)  -->
<svg version="1.1" id="Layer_1" xmlns="http://www.w3.org/2000/svg" xmlns:xlink="http://www.w3.org/1999/xlink" x="0px" y="0px"
	 viewBox="0 0 167.8 167.8" style="enable-background:new 0 0 167.8 167.8;" xml:space="preserve">
<style type="text/css">
	.st0{fill:#FFDC00;}
</style>
<g>
	<circle class="st0" cx="83.9" cy="83.9" r="83.9"/>
	<g>
		<g>
			<rect x="122.7" y="64.7" width="7.1" height="30.9"/>
			<path d="M142.1,76.1v-3.9H135v23.3h7.1V84.8c0-1.9,0.4-3.3,1.3-4c0.9-0.8,2.2-1.1,4-1.1h2V72c-1.5,0-2.9,0.4-4.2,1.1
				C144,73.9,143,74.9,142.1,76.1"/>
			<path d="M37.8,84.1c0,1.7-0.3,3.2-1,4.5c-0.7,1.3-1.6,2.3-2.8,3c-1.2,0.7-2.5,1-3.9,1c-1.4,0-2.7-0.3-3.9-1
				c-1.2-0.7-2.1-1.7-2.8-3c-0.7-1.3-1-2.8-1-4.6c0-1.7,0.3-3.2,1-4.5c0.7-1.3,1.6-2.3,2.8-2.9c1.2-0.7,2.5-1,3.9-1
				c1.4,0,2.7,0.3,3.9,1c1.2,0.7,2.1,1.7,2.8,2.9C37.4,80.9,37.8,82.4,37.8,84.1 M41.6,96.1V72.7h-3.8v4.2c-0.7-1.3-1.8-2.4-3.3-3.3
				c-1.5-0.9-3.2-1.3-5.2-1.3c-2,0-3.9,0.5-5.5,1.5c-1.7,1-3,2.3-3.9,4.1c-0.9,1.8-1.4,3.8-1.4,6.2c0,2.3,0.5,4.4,1.4,6.2
				c0.9,1.8,2.2,3.2,3.9,4.2c1.7,1,3.5,1.5,5.5,1.5c2,0,3.7-0.4,5.2-1.3c1.5-0.9,2.6-2,3.3-3.3v4.8c0,2.4-0.7,4.2-2,5.5
				c-1.3,1.3-3,2-5.1,2c-1.8,0-3.4-0.4-4.7-1.3c-1.3-0.8-2.2-2-2.6-3.4h-3.8c0.4,2.4,1.5,4.4,3.6,5.8c2,1.4,4.5,2.1,7.5,2.1
				c2.2,0,4.1-0.5,5.8-1.4c1.7-0.9,2.9-2.2,3.8-3.8C41.2,100,41.6,98.2,41.6,96.1"/>
			<path d="M64.7,84.1c0,1.8-0.4,3.4-1.1,4.7c-0.7,1.3-1.7,2.2-2.9,2.9c-1.2,0.6-2.5,1-3.8,1c-1.4,0-2.6-0.3-3.8-0.9
				c-1.1-0.6-2.1-1.6-2.7-2.9c-0.7-1.3-1-2.9-1-4.7c0-1.8,0.3-3.4,1-4.7c0.7-1.3,1.6-2.2,2.8-2.9c1.2-0.6,2.4-0.9,3.8-0.9
				c1.4,0,2.6,0.3,3.8,0.9c1.2,0.6,2.1,1.6,2.8,2.9C64.4,80.7,64.7,82.2,64.7,84.1 M68.6,84.1c0-2.4-0.5-4.4-1.5-6.2
				c-1-1.8-2.4-3.2-4.2-4.1c-1.8-1-3.7-1.4-5.9-1.4c-2.2,0-4.1,0.5-5.9,1.4c-1.8,1-3.1,2.3-4.2,4.1c-1,1.8-1.5,3.9-1.5,6.2
				c0,2.4,0.5,4.4,1.5,6.2c1,1.8,2.4,3.2,4.1,4.2c1.7,1,3.7,1.5,5.8,1.5c2.2,0,4.1-0.5,5.9-1.5c1.8-1,3.2-2.4,4.2-4.2
				C68.1,88.5,68.6,86.5,68.6,84.1"/>
			<path d="M82.2,95.9c1.9,0,3.6-0.3,5-0.9c1.4-0.6,2.5-1.5,3.3-2.5c0.8-1.1,1.1-2.3,1.1-3.7c0-1.6-0.5-2.9-1.3-3.9
				c-0.8-1-1.8-1.7-2.9-2.1c-1.1-0.4-2.5-0.9-4.2-1.3c-1.5-0.3-2.6-0.7-3.3-1c-0.7-0.3-1.1-0.8-1.1-1.5c0-0.6,0.2-1,0.7-1.3
				c0.4-0.3,1.1-0.5,1.9-0.5c1,0,1.8,0.2,2.4,0.7c0.6,0.5,1,1.1,1.1,1.9h6.6c-0.3-2.4-1.2-4.3-2.9-5.8c-1.7-1.4-4-2.2-6.9-2.2
				c-2,0-3.7,0.3-5.1,1c-1.4,0.6-2.5,1.5-3.3,2.6c-0.7,1.1-1.1,2.3-1.1,3.7c0,1.6,0.4,2.8,1.2,3.8c0.8,0.9,1.8,1.6,2.9,2
				c1.1,0.4,2.5,0.8,4.2,1.2c1.6,0.4,2.7,0.7,3.4,1.1c0.7,0.3,1,0.8,1,1.5c0,0.6-0.2,1-0.7,1.4c-0.5,0.3-1.2,0.5-2.1,0.5
				c-1,0-1.8-0.3-2.5-0.8c-0.7-0.5-1-1.2-1.1-2h-7.1c0.1,1.5,0.6,2.9,1.5,4.1c0.9,1.2,2.2,2.2,3.8,2.9
				C78.4,95.6,80.2,95.9,82.2,95.9"/>
			<path d="M111.6,83.9c0,1.9-0.5,3.3-1.4,4.3c-1,1-2.1,1.5-3.5,1.5c-1.4,0-2.5-0.5-3.4-1.5c-0.9-1-1.4-2.4-1.4-4.3
				c0-1.9,0.5-3.3,1.4-4.3c0.9-1,2.1-1.5,3.5-1.5c1.4,0,2.5,0.5,3.4,1.5C111.1,80.6,111.6,82.1,111.6,83.9 M118.9,83.9
				c0-2.4-0.5-4.5-1.6-6.3c-1.1-1.8-2.5-3.2-4.3-4.2c-1.8-1-3.9-1.5-6.2-1.5c-2.3,0-4.3,0.5-6.2,1.5c-1.8,1-3.3,2.4-4.3,4.2
				c-1.1,1.8-1.6,3.9-1.6,6.3c0,2.4,0.5,4.5,1.6,6.3c1,1.8,2.5,3.2,4.3,4.2c1.8,1,3.9,1.5,6.2,1.5c2.3,0,4.4-0.5,6.2-1.5
				c1.9-1,3.3-2.4,4.4-4.2C118.3,88.4,118.9,86.3,118.9,83.9"/>
		</g>
	</g>
</g>
</svg>
