<?xml version="1.0" encoding="UTF-8"?><svg id="Layer_2" xmlns="http://www.w3.org/2000/svg" viewBox="0 0 776.85 664.81"><defs><style>.cls-1{fill:#fff;}.cls-2{fill:#ffd200;}</style></defs><g id="Layer_1-2"><path d="m758.26,96.69l-43.26-2.3-13.86-61.16c-2.18-9.63-11.76-15.67-21.39-13.49l-162.15,36.74-98.1,22.23-66.87-3.55c-10.8-.58-20.06,7.75-20.64,18.56l-.26,4.88-48.14,10.91c-9.63,2.18-15.67,11.76-13.49,21.39l4.06,17.94h0l9.52,42,9.62,42.47c-2.89.2-5.79.4-8.73.58-29.16,1.82-59.31,3.71-79.33,23.73-18.18,18.18-27.52,42.72-36.56,66.45-1.94,5.09-3.94,10.36-5.98,15.39-14.25,35.23-30.16,70.47-45.54,104.54-14.41,31.92-29.3,64.92-42.84,97.91.57.7,1.13,1.39,1.7,2.09.22.26.43.53.65.79.36.44.73.87,1.09,1.3,0,0,0,0,0,0,.1-.27.18-.55.29-.81,13.67-33.44,28.8-66.93,43.42-99.33,15.4-34.12,31.33-69.4,45.61-104.72,2.05-5.07,4.07-10.36,6.01-15.48,8.85-23.27,18.01-47.32,35.48-64.79,18.76-18.75,48-20.58,76.28-22.35,3.03-.19,6.04-.38,9.01-.59l13.14,64.11-12.16,5.64c-33.84,15.7-60.54,44.81-73.26,79.89l-.1.27,2.23.8h0l2.23.8.09-.26c.57-1.57,1.2-3.11,1.82-4.65,12.9-31.8,37.79-58.08,68.98-72.55l7.92-3.67,5.02-2.33,11.2-5.2,1.79-.83,1.79-.83,170.37-79.04c18.8-8.72,34.98,0,43.12,10.11,8.09,10.06,13.12,27.63.63,44.05l-.53.69c-16.5,21.24-39.91,35.37-64.92,48.53-.7.37-1.4.74-2.1,1.11-.7.37-1.41.73-2.11,1.1-.95.5-1.91.99-2.86,1.49l-3.95,2.04c-1.08.55-2.17,1.12-3.26,1.68-2.86,1.47-5.74,2.97-8.62,4.48-1,.53-2,1.06-3,1.59-.99.53-1.99,1.06-2.98,1.59-2.73,1.47-5.45,2.95-8.14,4.47-13.3,7.51-24.49,18.12-32.83,30.69-1.19,1.79-2.3,3.62-3.37,5.48-.93,1.62-1.81,3.27-2.65,4.95-4.49,8.97-7.62,18.68-9.18,28.78-.11.68-.24,1.36-.33,2.04-.06.44-.13.88-.19,1.31-.15,1.11-.31,2.22-.49,3.32-.21,1.36-.44,2.72-.68,4.08-.17.96-.33,1.92-.51,2.87-.17.89-.35,1.78-.53,2.66-1.97,9.8-4.6,19.56-7.88,29.16-.2.58-.42,1.15-.63,1.73-.28.81-.58,1.61-.87,2.41-.29.8-.57,1.61-.87,2.41-4.18,11.11-9.19,21.87-14.95,32.21-.45.81-.89,1.62-1.35,2.43-.47.82-.95,1.62-1.43,2.43-12.52,21.32-28.29,40.7-46.8,57.28-24.46,21.92-51.55,41.35-77.75,60.15-9.1,6.53-18.45,13.25-27.63,20.01,0,0-.02.01-.03.02.85.35,1.72.69,2.58,1.04.17.07.34.14.51.21.37.15.73.3,1.1.44.32.13.64.26.97.39,0,0,0,0,.01-.01,8.4-6.17,16.93-12.29,25.24-18.26,26.3-18.87,53.5-38.38,78.15-60.47,19.63-17.59,36.25-38.26,49.26-61.04l14.77-.62c16.47,1.57,33.44-5.4,50.43-20.73,7.82-7.05,14.66-14.92,19.74-20.98,1.19-1.42,2.47-2.85,3.77-4.29,5.09-5.69,10.36-11.56,12.47-18.95,1.89-6.62,1.57-12.48.42-18.85,4.82-5.39,9.62-11.01,11.61-17.98,1.73-6.07,1.6-11.5.68-17.26,3.46-4.17,6.53-8.62,8.02-13.83,1.3-4.53,1.65-9.04,1.11-14.17-.48-4.53-1.62-9.07-3.33-13.48l181.5,9.63,80.26,4.26c.35.02.71.03,1.06.03,4.85,0,9.46-1.77,13.1-5.03,3.9-3.51,6.2-8.32,6.48-13.55l11.61-218.66c.57-10.81-7.75-20.06-18.56-20.64Zm-422.78-2.78c.46-8.59,7.59-15.28,16.1-15.28.29,0,.57,0,.86.02l54.54,2.89-71.71,16.25.21-3.89Zm-.15,156.7c-.45.1-.91.15-1.36.15-2.79,0-5.31-1.93-5.96-4.77l-.49-2.16-1.42-6.26-1.42-6.26-1.89-8.36c-.59-2.58.57-5.13,2.68-6.48.54-.35,1.14-.62,1.79-.78.05-.01.09-.04.14-.05.55-.12,1.09-.14,1.62-.12,2.68.12,5.07,1.99,5.69,4.73l5.22,23.03c.75,3.29-1.32,6.57-4.61,7.32Zm20.11-4.56c-.45.1-.91.15-1.36.15-2.79,0-5.31-1.93-5.96-4.77l-5.22-23.03c-.75-3.29,1.32-6.57,4.61-7.32,3.29-.75,6.57,1.32,7.31,4.61l5.22,23.03c.75,3.29-1.32,6.57-4.61,7.32Zm20.11-4.56c-.45.1-.91.15-1.36.15-2.79,0-5.31-1.93-5.96-4.77l-5.22-23.03c-.75-3.29,1.32-6.57,4.61-7.32,3.29-.75,6.57,1.32,7.31,4.61l5.22,23.03c.75,3.29-1.32,6.57-4.61,7.32Zm-45.15-52l-1.77.4-1.77.4-38.11,8.63-10.81-47.72,51.61-11.69,1.77-.4,1.77-.4,218.45-49.49,5.94-1.35.32-.07,6.26-1.42,138.1-31.29,8.86,39.09.4,1.77.4,1.77,1.15,5.09-117.37,26.59-265.2,60.09Zm274.34,22.19l34.15-7.74,54.09-12.26c1.54-.35,3.07.62,3.42,2.16.35,1.54-.62,3.07-2.16,3.42l-53.17,12.05-35.07,7.95c-.21.05-.43.07-.64.07-1.31,0-2.49-.9-2.79-2.23-.35-1.54.62-3.07,2.16-3.42Zm-3.29-14.53c-.21.05-.43.07-.64.07-1.31,0-2.49-.9-2.79-2.23-.35-1.54.62-3.07,2.16-3.42l29.99-6.79,58.25-13.2c1.54-.35,3.07.62,3.42,2.16.35,1.54-.62,3.07-2.16,3.42l-56.96,12.91-31.28,7.09Zm7.85,34.65l37.03-8.39,51.21-11.6c1.54-.35,3.07.62,3.42,2.16.35,1.54-.62,3.07-2.16,3.42l-50.65,11.48-37.59,8.52c-.21.05-.43.07-.64.07-1.31,0-2.49-.9-2.79-2.23-.35-1.54.62-3.07,2.16-3.42Zm4.56,20.11l38.63-8.75,49.61-11.24c1.54-.35,3.07.62,3.42,2.16.35,1.54-.62,3.07-2.16,3.42l-49.38,11.19-38.86,8.81c-.21.05-.43.07-.64.07-1.31,0-2.49-.9-2.79-2.23-.35-1.54.62-3.07,2.16-3.42Zm-154.12,183.02c-1.81,6.34-6.71,11.8-11.45,17.09-1.33,1.49-2.64,2.95-3.87,4.41-4.99,5.95-11.68,13.65-19.29,20.51-16.02,14.45-31.83,21.02-46.96,19.52l-.17-.02-12.21.51c5.6-10.35,10.45-21.11,14.51-32.19l9.59-.4c16.47,1.57,33.44-5.4,50.43-20.73,7.81-7.04,14.65-14.91,19.74-20.98.17-.2.35-.41.52-.61.5,4.34.4,8.44-.87,12.89Zm12.03-36.83c-1.4,4.91-4.66,9.29-8.26,13.47-.64.74-1.29,1.48-1.94,2.21-.42.47-.84.94-1.26,1.41-.24.27-.47.53-.71.8-1.08,1.21-2.15,2.42-3.16,3.61-4.99,5.95-11.69,13.66-19.29,20.51-16.02,14.45-31.82,21.01-46.96,19.52l-.17-.02-7.99.33c3.17-9.25,5.75-18.65,7.72-28.1,2.5,1.06,5.23,1.58,8.04,1.45.55-.02,1.1,0,1.65.04,1.23.1,2.47.14,3.71.14,15.03,0,30.45-7.03,45.87-20.95,2.44-2.2,4.77-4.48,7-6.76.57-.58,1.14-1.17,1.69-1.75.57-.6,1.12-1.19,1.67-1.78,3.54-3.81,6.71-7.5,9.38-10.69,1.19-1.42,2.47-2.85,3.76-4.29.08-.09.17-.19.25-.29.28,3.7.06,7.28-1.04,11.12Zm8.7-31.09c-.91,3.18-2.6,6.15-4.66,8.98-.6.83-1.24,1.65-1.9,2.46-.64.79-1.29,1.57-1.96,2.34-.97,1.12-1.95,2.22-2.93,3.32-1.33,1.49-2.64,2.95-3.87,4.41-2.42,2.89-5.25,6.19-8.39,9.61-.54.59-1.11,1.19-1.67,1.79-.55.59-1.11,1.18-1.68,1.77-2.39,2.47-4.91,4.96-7.55,7.34-15.7,14.16-31.19,20.75-46.04,19.6-.54-.04-1.06-.07-1.55-.07-.23,0-.45,0-.67.01-2.45.1-4.8-.44-6.89-1.51.71-3.8,1.32-7.61,1.83-11.41,0,0,0,0,0-.01.15-1.13.36-2.25.55-3.37.2-1.16.41-2.31.65-3.45,2.4-11.4,6.9-22.16,13.16-31.76,1.42-2.18,2.93-4.3,4.52-6.35,2.41-3.1,5.03-6.04,7.82-8.82,5.72-5.69,12.18-10.66,19.29-14.68.39-.22.79-.44,1.19-.66,4.55-2.55,9.18-5.02,13.81-7.45l1.09.06,22.94,1.22c2.02,4.64,3.33,9.46,3.84,14.26.48,4.58.19,8.39-.95,12.37Zm292.85-249.86l-11.61,218.66c-.23,4.3-2.12,8.26-5.32,11.14-3.2,2.88-7.32,4.34-11.64,4.11l-80.28-4.26-183.2-9.72-2.67-.14-2.76-.15-16.19-.86c1.58-.82,3.17-1.64,4.73-2.44l3.96-2.04c1.09-.56,2.17-1.13,3.25-1.69.7-.37,1.41-.73,2.11-1.1.7-.37,1.4-.74,2.1-1.11.46-.24.92-.49,1.38-.73l184.16-41.72,74.68-16.92c9.63-2.18,15.67-11.76,13.49-21.39l-33.73-148.85,42.27,2.24c8.88.47,15.73,8.08,15.26,16.96Z"/><path d="m732.52,411.2c-.97,0-1.75.78-1.75,1.75v29.34c0,.96.78,1.75,1.75,1.75s1.75-.78,1.75-1.75v-29.34c0-.96-.78-1.75-1.75-1.75Z"/><path d="m732.52,455.01c-.97,0-1.75.78-1.75,1.75v29.34c0,.96.78,1.75,1.75,1.75s1.75-.78,1.75-1.75v-29.34c0-.96-.78-1.75-1.75-1.75Z"/><path d="m769.1,447.77h-29.34c-.97,0-1.75.78-1.75,1.75s.78,1.75,1.75,1.75h29.34c.97,0,1.75-.78,1.75-1.75s-.78-1.75-1.75-1.75Z"/><path d="m725.29,447.77h-29.34c-.97,0-1.75.78-1.75,1.75s.78,1.75,1.75,1.75h29.34c.97,0,1.75-.78,1.75-1.75s-.78-1.75-1.75-1.75Z"/><path class="cls-1" d="m460.1,422.65c-5.09,6.07-11.93,13.94-19.74,20.98-16.99,15.33-33.96,22.3-50.43,20.73l-9.59.4c-4.06,11.08-8.91,21.85-14.51,32.19l12.21-.51.17.02c15.13,1.5,30.94-5.07,46.96-19.52,7.6-6.86,14.3-14.56,19.29-20.51,1.23-1.46,2.54-2.92,3.87-4.41,4.74-5.29,9.63-10.75,11.45-17.09,1.27-4.45,1.37-8.55.87-12.89-.17.2-.35.41-.52.61Z"/><path class="cls-1" d="m472.56,387.26c-1.3,1.45-2.57,2.87-3.76,4.29-2.67,3.19-5.84,6.88-9.38,10.69-.55.59-1.11,1.19-1.67,1.78-.55.58-1.12,1.16-1.69,1.75-2.22,2.28-4.56,4.56-7,6.76-15.42,13.91-30.84,20.95-45.87,20.95-1.24,0-2.48-.05-3.71-.14-.55-.04-1.1-.06-1.65-.04-2.8.12-5.53-.4-8.04-1.45-1.97,9.45-4.55,18.85-7.72,28.1l7.99-.33.17.02c15.13,1.5,30.94-5.07,46.96-19.52,7.59-6.85,14.3-14.56,19.29-20.51,1-1.2,2.07-2.4,3.16-3.61.24-.27.47-.53.71-.8.42-.47.84-.94,1.26-1.41.65-.73,1.3-1.47,1.94-2.21,3.6-4.18,6.85-8.57,8.26-13.47,1.1-3.85,1.32-7.42,1.04-11.12-.08.09-.17.19-.25.29Z"/><path class="cls-1" d="m477.59,340.38l-22.94-1.22-1.09-.06c-4.63,2.43-9.27,4.9-13.81,7.45-.39.22-.8.44-1.19.66-7.11,4.02-13.57,8.99-19.29,14.68-2.79,2.77-5.41,5.71-7.82,8.82-1.59,2.05-3.1,4.17-4.52,6.35-6.25,9.59-10.76,20.36-13.16,31.76-.24,1.14-.46,2.29-.65,3.45-.19,1.12-.4,2.24-.55,3.37,0,0,0,0,0,.01-.51,3.8-1.12,7.61-1.83,11.41,2.09,1.07,4.44,1.61,6.89,1.51.22,0,.44-.01.67-.01.49,0,1,.02,1.55.07,14.85,1.15,30.34-5.44,46.04-19.6,2.64-2.38,5.16-4.87,7.55-7.34.57-.59,1.13-1.18,1.68-1.77.56-.6,1.12-1.2,1.67-1.79,3.14-3.42,5.97-6.72,8.39-9.61,1.22-1.46,2.53-2.92,3.87-4.41.98-1.1,1.97-2.2,2.93-3.32.67-.77,1.33-1.55,1.96-2.34.66-.81,1.29-1.63,1.9-2.46,2.06-2.83,3.74-5.79,4.66-8.98,1.14-3.98,1.43-7.8.95-12.37-.51-4.79-1.82-9.62-3.84-14.26Z"/><path class="cls-1" d="m758.08,100.18l-42.27-2.24,33.73,148.85c2.18,9.63-3.86,19.21-13.49,21.39l-74.68,16.92-184.16,41.72c-.46.24-.92.49-1.38.73-.7.37-1.4.74-2.1,1.11-.7.37-1.41.73-2.11,1.1-1.08.56-2.17,1.13-3.25,1.69l-3.96,2.04c-1.57.81-3.15,1.62-4.73,2.44l16.19.86,2.76.15,2.67.14,183.2,9.72,80.28,4.26c4.32.23,8.44-1.23,11.64-4.11,3.2-2.88,5.09-6.84,5.32-11.14l11.61-218.66c.47-8.88-6.37-16.49-15.26-16.96Z"/><path class="cls-1" d="m351.59,78.63c-8.51,0-15.64,6.68-16.1,15.28l-.21,3.89,71.71-16.25-54.54-2.89c-.29-.02-.58-.02-.86-.02Z"/><polygon class="cls-1" points="564.07 86.38 557.81 87.8 557.49 87.87 551.56 89.22 333.11 138.71 331.34 139.11 329.57 139.52 277.95 151.21 288.76 198.93 326.87 190.3 328.64 189.89 330.42 189.49 595.61 129.41 712.98 102.81 711.83 97.73 711.43 95.95 711.02 94.18 702.17 55.1 564.07 86.38"/><path class="cls-1" d="m614.5,257.57c.21,0,.42-.02.64-.07l38.86-8.81,49.38-11.19c1.54-.35,2.51-1.88,2.16-3.42-.35-1.54-1.89-2.51-3.42-2.16l-49.61,11.24-38.63,8.75c-1.54.35-2.51,1.88-2.16,3.42.3,1.33,1.48,2.23,2.79,2.23Z"/><path class="cls-1" d="m609.94,237.45c.21,0,.42-.02.64-.07l37.59-8.52,50.65-11.48c1.54-.35,2.51-1.88,2.16-3.42-.35-1.54-1.89-2.51-3.42-2.16l-51.21,11.6-37.03,8.39c-1.54.35-2.51,1.88-2.16,3.42.3,1.33,1.48,2.23,2.79,2.23Z"/><path class="cls-1" d="m605.38,217.34c.21,0,.42-.02.64-.07l35.07-7.95,53.17-12.05c1.54-.35,2.51-1.88,2.16-3.42-.35-1.54-1.88-2.51-3.42-2.16l-54.09,12.26-34.15,7.74c-1.54.35-2.51,1.88-2.16,3.42.3,1.33,1.48,2.23,2.79,2.23Z"/><path class="cls-1" d="m689.7,177.16c1.54-.35,2.51-1.88,2.16-3.42-.35-1.54-1.88-2.5-3.42-2.16l-58.25,13.2-29.99,6.79c-1.54.35-2.51,1.88-2.16,3.42.3,1.33,1.48,2.23,2.79,2.23.21,0,.42-.02.64-.07l31.28-7.09,56.96-12.91Z"/><path class="cls-1" d="m376.09,462.57c.29-.8.59-1.6.87-2.41.2-.58.43-1.15.63-1.73,3.29-9.59,5.92-19.35,7.88-29.16.18-.89.36-1.78.53-2.66.18-.96.34-1.92.51-2.87.24-1.36.47-2.72.68-4.08.17-1.11.33-2.22.49-3.32.06-.44.13-.88.19-1.31.09-.69.23-1.36.33-2.04,1.57-10.1,4.69-19.8,9.18-28.78.84-1.67,1.72-3.32,2.65-4.95,1.07-1.86,2.18-3.7,3.37-5.48,8.34-12.56,19.53-23.18,32.83-30.69,2.69-1.52,5.41-3,8.14-4.47.99-.53,1.98-1.06,2.98-1.59,1-.53,2-1.06,3-1.59,2.89-1.52,5.76-3.01,8.62-4.48,1.09-.56,2.18-1.12,3.26-1.68l3.95-2.04c.96-.49,1.91-.99,2.86-1.49.7-.37,1.41-.73,2.11-1.1.7-.37,1.4-.74,2.1-1.11,25.01-13.16,48.42-27.29,64.92-48.53l.53-.69c12.49-16.42,7.46-33.99-.63-44.05-8.14-10.12-24.31-18.83-43.12-10.11l-170.37,79.04-1.79.83-1.79.83-11.2,5.2-5.02,2.33-7.92,3.67c-31.19,14.47-56.07,40.75-68.98,72.55-.63,1.54-1.25,3.08-1.82,4.65l-.09.26-2.23-.8h0l-2.23-.8.1-.27c12.72-35.08,39.42-64.19,73.26-79.89l12.16-5.64-13.14-64.11c-2.97.21-5.98.4-9.01.59-28.28,1.77-57.52,3.6-76.28,22.35-17.47,17.47-26.63,41.52-35.48,64.79-1.95,5.11-3.96,10.4-6.01,15.48-14.28,35.32-30.21,70.6-45.61,104.72-14.63,32.39-29.75,65.89-43.42,99.33-.11.27-.2.54-.29.81,0,0,0,0,0,0,0,0,.01.01.02.02,1.39,1.66,2.8,3.3,4.23,4.93.3.34.59.67.89,1.01,1.51,1.71,3.03,3.4,4.56,5.07.24.26.47.51.71.77,1.6,1.73,3.22,3.44,4.85,5.14.2.2.39.41.59.61,1.68,1.73,3.37,3.44,5.09,5.13.17.17.34.33.51.5,1.74,1.71,3.49,3.39,5.26,5.06.17.16.34.31.51.47,1.77,1.66,3.56,3.3,5.36,4.91.19.17.39.35.58.52,1.78,1.59,3.57,3.16,5.39,4.7.24.2.48.41.72.61,1.77,1.5,3.55,2.99,5.35,4.45.3.25.61.49.91.74,1.73,1.4,3.48,2.78,5.24,4.15.4.31.79.61,1.19.92,1.67,1.29,3.35,2.56,5.05,3.81.51.38,1.02.75,1.53,1.12,1.59,1.16,3.19,2.31,4.8,3.44.64.45,1.28.89,1.92,1.34,1.49,1.04,3,2.06,4.51,3.07.78.52,1.57,1.04,2.35,1.55,1.38.91,2.77,1.81,4.16,2.69.94.6,1.89,1.19,2.83,1.78,1.25.78,2.51,1.55,3.77,2.31,1.11.67,2.22,1.33,3.34,1.98,1.12.66,2.23,1.31,3.36,1.95,1.28.73,2.56,1.45,3.85,2.16.98.54,1.95,1.08,2.94,1.62,1.45.79,2.91,1.56,4.37,2.32.84.44,1.67.87,2.51,1.3,1.62.83,3.24,1.64,4.87,2.44.7.34,1.4.69,2.1,1.03,1.77.86,3.55,1.69,5.34,2.52.58.27,1.15.53,1.73.8,1.92.87,3.84,1.72,5.78,2.56.46.2.92.4,1.39.6,1.02.44,2.04.88,3.07,1.31,0,0,.02-.01.03-.02,9.17-6.77,18.53-13.49,27.63-20.01,26.2-18.79,53.29-38.23,77.75-60.15,18.5-16.58,34.27-35.96,46.8-57.28.48-.81.96-1.61,1.43-2.43.46-.8.9-1.62,1.35-2.43,5.76-10.34,10.77-21.1,14.95-32.21.3-.8.58-1.61.87-2.41Z"/><path class="cls-1" d="m74.34,541.9c-.5-.61-1-1.22-1.5-1.84.5.62.99,1.25,1.49,1.87.56.69,1.14,1.38,1.71,2.07.22.26.44.52.65.78-.22-.26-.43-.53-.65-.79-.57-.69-1.13-1.39-1.7-2.09Z"/><path class="cls-2" d="m482.82,340.66c1.71,4.41,2.85,8.95,3.33,13.48.54,5.14.19,9.64-1.11,14.17-1.49,5.21-4.56,9.66-8.02,13.83.92,5.76,1.05,11.2-.68,17.26-1.99,6.97-6.8,12.59-11.61,17.98,1.15,6.36,1.48,12.23-.42,18.85-2.11,7.39-7.38,13.26-12.47,18.95-1.3,1.45-2.57,2.87-3.77,4.29-5.08,6.06-11.92,13.93-19.74,20.98-16.99,15.33-33.96,22.3-50.43,20.73l-14.77.62c-13,22.78-29.63,43.46-49.26,61.04-24.66,22.09-51.85,41.6-78.15,60.47-8.31,5.96-16.84,12.09-25.24,18.26,1.83.72,3.66,1.44,5.5,2.13.29.11.59.22.88.33,2.23.83,4.48,1.64,6.73,2.42.25.09.49.17.74.26,2.29.79,4.58,1.55,6.89,2.29.23.07.45.15.68.22,2.31.74,4.63,1.44,6.96,2.13.24.07.47.14.71.21,2.31.67,4.62,1.32,6.95,1.94.27.07.55.15.82.22,2.27.6,4.55,1.18,6.84,1.74.34.08.69.17,1.03.25,2.21.53,4.42,1.03,6.64,1.52.44.1.89.19,1.33.29,2.11.45,4.22.88,6.34,1.29.58.11,1.15.22,1.73.33,1.98.37,3.97.72,5.97,1.06.73.12,1.45.25,2.18.36,1.84.3,3.68.58,5.52.84.9.13,1.81.26,2.72.38,1.66.23,3.33.44,5,.64,1.11.13,2.22.26,3.32.39,1.47.16,2.94.31,4.41.46,1.32.13,2.65.25,3.98.36,1.26.11,2.53.2,3.79.3,1.55.11,3.1.22,4.65.31,1.05.06,2.11.12,3.16.17,1.78.09,3.55.16,5.33.22.84.03,1.68.05,2.51.07,2,.05,4.01.09,6.02.1.63,0,1.26,0,1.88,0,2.22,0,4.44-.01,6.66-.06.44,0,.87-.02,1.31-.03,2.41-.06,4.82-.13,7.24-.24.27-.01.53-.02.8-.04,2.57-.12,5.14-.27,7.72-.45.13,0,.27-.02.4-.03,2.68-.19,5.37-.42,8.06-.68.05,0,.1,0,.15-.01,2.74-.27,5.49-.57,8.24-.9.03,0,.05,0,.08,0,2.73-.33,5.47-.7,8.21-1.11.08-.01.16-.02.23-.03,2.64-.39,5.29-.82,7.94-1.28.21-.04.41-.07.62-.11,2.46-.43,4.92-.89,7.38-1.38.44-.09.89-.18,1.33-.27,2.16-.44,4.32-.9,6.48-1.38,7.12-1.59,14.24-3.4,21.35-5.48,89.31-26.18,159.29-86.56,199.84-162.69,22.54-42.31,35.97-89.48,38.6-138.35l-181.5-9.63Z"/><path class="cls-2" d="m293.32,233.3l-9.62-42.47-9.52-42h0l-4.06-17.94c-2.18-9.63,3.86-19.21,13.49-21.39l48.14-10.91.26-4.88c.58-10.81,9.84-19.14,20.64-18.56l66.87,3.55,98.1-22.23C438.54,3.48,337.4-15.37,238.91,13.5,69.1,63.28-30.78,236.69,8.53,406.91c.41,1.77.84,3.54,1.27,5.3.3,1.23.61,2.46.93,3.68.33,1.26.67,2.52,1.01,3.77.47,1.72.94,3.43,1.44,5.15.23.79.46,1.57.69,2.35.63,2.12,1.28,4.24,1.95,6.34.14.43.28.86.42,1.3.77,2.39,1.56,4.76,2.38,7.11.07.2.14.4.21.6.89,2.53,1.8,5.05,2.74,7.55.03.07.06.15.08.22.98,2.59,1.98,5.16,3.02,7.7.01.03.02.06.03.08,1.04,2.56,2.11,5.1,3.21,7.62.02.05.05.1.07.16,1.08,2.47,2.19,4.92,3.32,7.35.06.13.12.26.18.39,1.09,2.33,2.21,4.64,3.35,6.94.12.25.25.49.37.74,1.08,2.15,2.18,4.29,3.3,6.42.21.39.42.79.62,1.18,1.04,1.96,2.1,3.9,3.18,5.83.31.55.62,1.11.93,1.66.99,1.74,1.99,3.47,3.01,5.2.43.73.86,1.45,1.3,2.18.91,1.52,1.84,3.03,2.78,4.53.56.9,1.13,1.8,1.7,2.7.83,1.3,1.67,2.6,2.52,3.89.7,1.07,1.41,2.14,2.12,3.2.74,1.1,1.48,2.19,2.23,3.27.85,1.22,1.7,2.44,2.56,3.66.64.91,1.29,1.8,1.94,2.7.99,1.36,1.99,2.72,3,4.07.55.73,1.1,1.45,1.65,2.18,1.13,1.49,2.28,2.96,3.43,4.43.45.57.91,1.14,1.37,1.71.49.62,1,1.23,1.5,1.84,13.53-32.99,28.42-65.99,42.84-97.91,15.38-34.08,31.29-69.31,45.54-104.54,2.03-5.03,4.04-10.29,5.98-15.39,9.03-23.73,18.37-48.27,36.56-66.45,20.02-20.02,50.18-21.91,79.33-23.73,2.95-.18,5.84-.38,8.73-.58Z"/><path class="cls-2" d="m367.64,206.53c-3.29.75-5.36,4.02-4.61,7.32l5.22,23.03c.64,2.84,3.16,4.77,5.96,4.77.45,0,.9-.05,1.36-.15,3.29-.75,5.36-4.02,4.61-7.32l-5.22-23.03c-.75-3.29-4.02-5.36-7.31-4.61Z"/><path class="cls-2" d="m347.53,211.09c-3.29.75-5.36,4.02-4.61,7.32l5.22,23.03c.64,2.84,3.16,4.77,5.96,4.77.45,0,.9-.05,1.36-.15,3.29-.75,5.36-4.02,4.61-7.32l-5.22-23.03c-.75-3.29-4.02-5.36-7.31-4.61Z"/><path class="cls-2" d="m329.03,215.53c-.53-.02-1.07,0-1.62.12-.05.01-.09.03-.14.05-.65.17-1.25.44-1.79.78-2.11,1.35-3.27,3.9-2.68,6.48l1.89,8.36,1.42,6.26,1.42,6.26.49,2.16c.64,2.84,3.16,4.77,5.96,4.77.45,0,.9-.05,1.36-.15,3.29-.75,5.36-4.02,4.61-7.32l-5.22-23.03c-.62-2.75-3.01-4.61-5.69-4.73Z"/></g></svg>